<svg id="Capa_1" enable-background="new 0 0 512 512" height="512" viewBox="0 0 512 512" width="512" xmlns="http://www.w3.org/2000/svg"><g><g><g><g><g><g><g><g id="XMLID_2476_"><g id="XMLID_2477_"><g id="XMLID_2478_"><g id="XMLID_2479_"><g id="XMLID_2480_"><g id="XMLID_2481_"><g id="XMLID_2482_"><g id="XMLID_2600_"><g id="XMLID_2601_"><g id="XMLID_2602_"><g id="XMLID_2603_"><g id="XMLID_2704_"><g id="XMLID_2988_"><g id="XMLID_2989_"><circle id="XMLID_2990_" cx="256" cy="256" fill="#9ae3ff" r="256"/></g></g></g></g></g></g></g></g></g></g></g></g></g></g></g></g></g></g></g></g><path d="m327.239 78.54-63.637-19.439-76.866 42.234-16.471 184.562-94.709 101.48 116.597 116.597c20.409 5.24 41.803 8.026 63.847 8.026 138.977 0 252.087-110.744 255.9-248.799z" fill="#49b4ff"/><g><g><path d="m165 135.535v136.85h35v-135.8c0-31.48 25.32-57.42 56.4-57.45l19.961-17.768-19.961-17.222c-50.4-.02-91.4 40.99-91.4 91.39z" fill="#fff"/></g></g><g><g><path d="m347.4 135.535v136.85h-35v-135.8c0-31.48-25.32-57.42-56.4-57.45v-34.99c50.4-.02 91.4 40.99 91.4 91.39z" fill="#d3d3d3"/></g></g><g><path d="m452.87 272.57v.01c0 29.92-24.25 86.9-54.17 86.9h-285.4c-29.92 0-54.17-56.98-54.17-86.9 0-26.64 10.8-50.76 28.25-68.22 17.46-17.46 41.58-28.26 68.22-28.26h200.81c53.27 0 96.46 43.19 96.46 96.47z" fill="#ff3666"/><path d="m452.87 272.57v.01c0 29.92-24.25 86.9-54.17 86.9h-142.7v-183.38h100.41c53.27 0 96.46 43.19 96.46 96.47z" fill="#d80f49"/><path d="m452.871 272.577v20.422c0 60.582-40.174 109.693-100.756 109.693l-88.513-24.836-103.717 24.836h-67.098c-18.589 0-33.659-15.069-33.659-33.659v-96.457h393.743z" fill="#ffce67"/><path d="m452.87 272.58v96.45c0 18.59-15.07 33.66-33.66 33.66h-163.21v-130.11z" fill="#f99a48"/><g><g><path d="m352.115 402.681h-192.23v-56.36l100.681-13.389 91.549 13.389z" fill="#994500"/></g></g><g><path d="m352.12 346.321v56.369h-96.12v-81.94z" fill="#723100"/></g></g><path d="m164.602 176.1h35v96.477h-35z" fill="#2b2a78"/><path d="m312.398 176.1h35v96.477h-35z" fill="#03002c"/><path d="m159.885 312.816h192.23v33.506h-192.23z" fill="#fff"/><path d="m256 312.816h96.115v33.506h-96.115z" fill="#d3d3d3"/></g></svg>